<svg xmlns="http://www.w3.org/2000/svg" xmlns:xlink="http://www.w3.org/1999/xlink" viewBox="0 0 156.52 36.43"><defs><style>.cls-1{fill:url(#linear-gradient);}.cls-2{fill:#010101;}</style><linearGradient id="linear-gradient" x1="-1.16" y1="20.21" x2="34.6" y2="20.21" gradientTransform="matrix(1, 0, 0, -1, 0, 38.43)" gradientUnits="userSpaceOnUse"><stop offset="0" stop-color="#ba2028"/><stop offset="0.49" stop-color="#1d1d1d"/><stop offset="1" stop-color="#108342"/></linearGradient></defs><title>logo</title><g id="Layer_2" data-name="Layer 2"><g id="Layer_1-2" data-name="Layer 1"><path class="cls-1" d="M33.2,8.46A5.51,5.51,0,0,0,29.62,4.9L16.78.09A3.29,3.29,0,0,0,16,0C15,0,13.17.53,13.07,4.08v9.61h0l-.23-.07c-4.34-1.36-8.31-3.08-8.7-3.25H4.06c-.67,0-4,.23-4,4.64V27a4.14,4.14,0,0,0,.38,2,6.71,6.71,0,0,0,4,3.31l9.9,3.6h0a8,8,0,0,0,2.85.6c2.14,0,3.29-1.22,3.42-3.63V26.24l0-2.81h0l.85.3,7.82,2.85h0a4,4,0,0,0,1.56.34h0c1.83,0,2.81-1.53,2.84-4.43V11A7.85,7.85,0,0,0,33.2,8.46ZM15.39,4.66a1.75,1.75,0,0,1,1.8-1.73,4.44,4.44,0,0,1,1.53.34L26.05,6.1h0c.06,0,1.5.75,1.66,2a2.35,2.35,0,0,1-1,2,54.32,54.32,0,0,1-5,3.9,6.45,6.45,0,0,1-3.31.68,13.79,13.79,0,0,1-2.87-.32l-.14,0V4.66Zm2.8,15.48-.55-.2c-.2,0-1.44-.34-2-2.73l-.07-.3.3.1a3.44,3.44,0,0,1,2.26,2.82ZM3.67,25.78c-.61,0-1.34-.36-1.37-2V15.25a2.79,2.79,0,0,1,.53-1.88A1.47,1.47,0,0,1,4,12.92a2.83,2.83,0,0,1,.41,0h0L13.07,16v.3c0,.22.21,2.51-3.25,5.19s-4.46,3.59-4.47,3.6h0A3.24,3.24,0,0,1,3.67,25.78Zm14.57,6.77v0a1.88,1.88,0,0,1-1.92,1.36,3.28,3.28,0,0,1-.88-.12h0L5.49,30.29l0,0a1,1,0,0,1-.38-.76c0-.74.59-1.62,1.85-2.62,2.67-2.14,4.47-3.44,4.58-3.52a6.56,6.56,0,0,1,4-1.21,9.59,9.59,0,0,1,2.55.37l.13,0ZM31.36,22.09h0A2.12,2.12,0,0,1,29.27,24a4,4,0,0,1-1.37-.28l-6.46-2.35-.84-.28v-.17a6.82,6.82,0,0,1,2.24-4.74l5.39-4.24h0a2.37,2.37,0,0,1,1.08-.27c.9,0,2,.59,2,3.41Z"/><path class="cls-2" d="M49,24.59a7.45,7.45,0,0,1-3.53-.78,5.43,5.43,0,0,1-2.25-2.23,6.88,6.88,0,0,1-.79-3.37,7.3,7.3,0,0,1,.45-2.62,5.57,5.57,0,0,1,1.3-2,5.79,5.79,0,0,1,2.07-1.29A7.75,7.75,0,0,1,49,11.84a7.86,7.86,0,0,1,1.68.18,5.67,5.67,0,0,1,1.54.55,1.57,1.57,0,0,1,.68.67,1.4,1.4,0,0,1,.13.83,1.6,1.6,0,0,1-.31.75,1.16,1.16,0,0,1-.63.45,1.13,1.13,0,0,1-.84-.12,6.11,6.11,0,0,0-1-.37,4.45,4.45,0,0,0-1.08-.14,3.6,3.6,0,0,0-1.82.42,2.56,2.56,0,0,0-1.1,1.2,4.52,4.52,0,0,0-.37,1.95,4.63,4.63,0,0,0,.37,2,2.63,2.63,0,0,0,1.1,1.21,3.71,3.71,0,0,0,1.82.41,4.86,4.86,0,0,0,2-.47,1.43,1.43,0,0,1,.93-.13,1.21,1.21,0,0,1,.67.43,1.63,1.63,0,0,1,.33.72,1.44,1.44,0,0,1-.12.82,1.39,1.39,0,0,1-.64.65,5.37,5.37,0,0,1-1.52.58A8.32,8.32,0,0,1,49,24.59Z"/><path class="cls-2" d="M60.41,24.59a6.66,6.66,0,0,1-3.3-.79,5.6,5.6,0,0,1-2.21-2.24,6.94,6.94,0,0,1-.78-3.35,7.33,7.33,0,0,1,.45-2.62,5.57,5.57,0,0,1,3.27-3.31,7.24,7.24,0,0,1,2.57-.44,6.62,6.62,0,0,1,3.29.79,5.53,5.53,0,0,1,2.2,2.22,6.79,6.79,0,0,1,.79,3.36,7.28,7.28,0,0,1-.45,2.61,5.83,5.83,0,0,1-1.28,2,5.63,5.63,0,0,1-2,1.3A7.22,7.22,0,0,1,60.41,24.59Zm0-2.7A2.69,2.69,0,0,0,62,21.45a2.75,2.75,0,0,0,1-1.26,5,5,0,0,0,.35-2,4.28,4.28,0,0,0-.77-2.71,2.63,2.63,0,0,0-2.16-1,2.72,2.72,0,0,0-1.57.43,2.64,2.64,0,0,0-1,1.25,5,5,0,0,0-.35,2,4.28,4.28,0,0,0,.77,2.71A2.58,2.58,0,0,0,60.41,21.89Z"/><path class="cls-2" d="M70.11,24.56A1.37,1.37,0,0,1,68.6,23V13.47A1.67,1.67,0,0,1,69,12.28a1.36,1.36,0,0,1,1-.41,1.56,1.56,0,0,1,.87.21,3.62,3.62,0,0,1,.71.7l5.56,7h-.49V13.38A1.57,1.57,0,0,1,77,12.25a1.53,1.53,0,0,1,1.12-.38,1.51,1.51,0,0,1,1.11.38,1.53,1.53,0,0,1,.38,1.13V23.1a1.56,1.56,0,0,1-.35,1.06,1.18,1.18,0,0,1-1,.39,1.71,1.71,0,0,1-.94-.21,3.46,3.46,0,0,1-.73-.7l-5.56-7h.49V23a1.54,1.54,0,0,1-.38,1.14A1.51,1.51,0,0,1,70.11,24.56Z"/><path class="cls-2" d="M83.41,24.56A1.37,1.37,0,0,1,81.9,23V13.47a1.67,1.67,0,0,1,.39-1.19,1.38,1.38,0,0,1,1-.41,1.69,1.69,0,0,1,.88.21,3.87,3.87,0,0,1,.7.7l5.56,7H90V13.38a1.57,1.57,0,0,1,.38-1.13,1.51,1.51,0,0,1,1.11-.38,1.55,1.55,0,0,1,1.12.38,1.57,1.57,0,0,1,.37,1.13V23.1a1.58,1.58,0,0,1-.35,1.06,1.19,1.19,0,0,1-1,.39,1.71,1.71,0,0,1-.94-.21,3.46,3.46,0,0,1-.73-.7l-5.56-7h.49V23a1.58,1.58,0,0,1-.37,1.14A1.53,1.53,0,0,1,83.41,24.56Z"/><path class="cls-2" d="M96.89,24.4A1.66,1.66,0,0,1,95.64,24a1.65,1.65,0,0,1-.43-1.23v-9A1.51,1.51,0,0,1,96.89,12h6a1.31,1.31,0,0,1,1,.32,1.23,1.23,0,0,1,.31.91,1.32,1.32,0,0,1-.31.94,1.3,1.3,0,0,1-1,.32H98.29v2.35h4.16a1.3,1.3,0,0,1,.94.32,1.48,1.48,0,0,1,0,1.86,1.29,1.29,0,0,1-.94.32H98.29v2.54h4.55a1.31,1.31,0,0,1,1,.32,1.29,1.29,0,0,1,.31.93,1.1,1.1,0,0,1-1.26,1.24Z"/><path class="cls-2" d="M112.26,24.59a7.41,7.41,0,0,1-3.52-.78,5.46,5.46,0,0,1-2.26-2.23,7,7,0,0,1-.78-3.37,7.33,7.33,0,0,1,.45-2.62,5.52,5.52,0,0,1,3.37-3.31,7.75,7.75,0,0,1,2.74-.44,7.86,7.86,0,0,1,1.68.18,5.6,5.6,0,0,1,1.53.55,1.54,1.54,0,0,1,.69.67,1.46,1.46,0,0,1,.13.83,1.6,1.6,0,0,1-.31.75,1.16,1.16,0,0,1-.63.45,1.12,1.12,0,0,1-.84-.12,5.7,5.7,0,0,0-1.05-.37,4.3,4.3,0,0,0-1.07-.14,3.58,3.58,0,0,0-1.82.42,2.56,2.56,0,0,0-1.1,1.2,4.49,4.49,0,0,0-.37,1.95,4.63,4.63,0,0,0,.37,2,2.58,2.58,0,0,0,1.1,1.21,3.68,3.68,0,0,0,1.82.41,4.67,4.67,0,0,0,1-.11,4.85,4.85,0,0,0,1-.36,1.45,1.45,0,0,1,.94-.13,1.28,1.28,0,0,1,.67.42,1.55,1.55,0,0,1,.32.73,1.37,1.37,0,0,1-.11.82,1.44,1.44,0,0,1-.64.65,5.61,5.61,0,0,1-1.52.58A8.34,8.34,0,0,1,112.26,24.59Z"/><path class="cls-2" d="M122.44,24.56a1.56,1.56,0,0,1-1.19-.43,1.66,1.66,0,0,1-.42-1.2V14.66h-2.76a1.34,1.34,0,0,1-1-.34,1.3,1.3,0,0,1-.34-1,1.3,1.3,0,0,1,.34-1,1.38,1.38,0,0,1,1-.34h8.74a1.34,1.34,0,0,1,1,.34,1.3,1.3,0,0,1,.34,1,1.29,1.29,0,0,1-.34,1,1.34,1.34,0,0,1-1,.34h-2.76v8.27a1.7,1.7,0,0,1-.4,1.21A1.6,1.6,0,0,1,122.44,24.56Z"/><path class="cls-2" d="M134.81,24.56a1.56,1.56,0,0,1-.91-.26,1.06,1.06,0,0,1-.46-.7,1.69,1.69,0,0,1,.16-1l4.37-9.4a2.26,2.26,0,0,1,.78-1,1.89,1.89,0,0,1,1.06-.32,1.74,1.74,0,0,1,1.05.32,2.66,2.66,0,0,1,.78,1l4.37,9.4a1.72,1.72,0,0,1,.2,1,1,1,0,0,1-.44.7,1.54,1.54,0,0,1-.89.25,1.63,1.63,0,0,1-1.07-.32,2.59,2.59,0,0,1-.68-1L142.18,21l1.23.89h-7.23l1.25-.89-1,2.22a3.12,3.12,0,0,1-.65,1A1.43,1.43,0,0,1,134.81,24.56Zm5-9.16-2,4.86-.49-.84h5.11l-.49.84-2.06-4.86Z"/><path class="cls-2" d="M149.3,24.4a1.68,1.68,0,0,1-1.25-.43,1.65,1.65,0,0,1-.43-1.23v-9A1.51,1.51,0,0,1,149.3,12h5.95a1.29,1.29,0,0,1,.95.31,1.27,1.27,0,0,1,.32.92,1.13,1.13,0,0,1-1.27,1.26h-4.54v2.35h4.16a1.3,1.3,0,0,1,.94.32,1.48,1.48,0,0,1,0,1.86,1.29,1.29,0,0,1-.94.31h-4.16v2.55h4.54a1.12,1.12,0,0,1,1.27,1.24,1.28,1.28,0,0,1-.32.93,1.26,1.26,0,0,1-.95.32Z"/></g></g></svg>