<svg xmlns="http://www.w3.org/2000/svg" xmlns:xlink="http://www.w3.org/1999/xlink" viewBox="0 0 175.72 38.68"><defs><style>.cls-1{fill:url(#linear-gradient);}.cls-2{fill:url(#linear-gradient-2);}.cls-3{fill:url(#linear-gradient-8);}</style><linearGradient id="linear-gradient" x1="3.53" y1="19.34" x2="133.86" y2="19.34" gradientUnits="userSpaceOnUse"><stop offset="0" stop-color="#ba2028"/><stop offset="0.49" stop-color="#1d1d1d"/><stop offset="1" stop-color="#108342"/></linearGradient><linearGradient id="linear-gradient-2" x1="41.46" y1="21.35" x2="176.48" y2="21.35" gradientUnits="userSpaceOnUse"><stop offset="0" stop-color="#ba2028"/><stop offset="0.08" stop-color="#8e1f25"/><stop offset="0.17" stop-color="#661e22"/><stop offset="0.26" stop-color="#461e20"/><stop offset="0.34" stop-color="#2f1d1e"/><stop offset="0.42" stop-color="#221d1d"/><stop offset="0.49" stop-color="#1d1d1d"/><stop offset="0.59" stop-color="#1c211e"/><stop offset="0.69" stop-color="#1b2d23"/><stop offset="0.79" stop-color="#18412a"/><stop offset="0.89" stop-color="#155d34"/><stop offset="0.99" stop-color="#108041"/><stop offset="1" stop-color="#108342"/></linearGradient><linearGradient id="linear-gradient-8" x1="41.46" y1="21.44" x2="176.48" y2="21.44" xlink:href="#linear-gradient-2"/></defs><title>logo</title><g id="Layer_2" data-name="Layer 2"><g id="Layer_1-2" data-name="Layer 1"><path class="cls-1" d="M35.25,9a5.87,5.87,0,0,0-3.8-3.78L17.82.1A2.89,2.89,0,0,0,17,0c-1.13,0-3,.56-3.13,4.33v10.2h0l-.24-.08C9,13,4.81,11.19,4.4,11H4.31C3.6,11,0,11.24,0,15.93V28.61H0A4.28,4.28,0,0,0,.42,30.7a7.13,7.13,0,0,0,4.23,3.52l10.51,3.83h0a8.64,8.64,0,0,0,3,.63c2.27,0,3.49-1.29,3.63-3.85v-7l0-3h0l.9.33,8.3,3h0a4.56,4.56,0,0,0,1.66.35h0c1.94,0,3-1.62,3-4.7V11.72A8.56,8.56,0,0,0,35.25,9ZM16.34,5a1.86,1.86,0,0,1,1.91-1.83,4.74,4.74,0,0,1,1.63.35l7.78,3h0c.06,0,1.59.8,1.77,2.08a2.51,2.51,0,0,1-1.06,2.16,55.54,55.54,0,0,1-5.33,4.14,6.83,6.83,0,0,1-3.52.73,15.21,15.21,0,0,1-3-.34l-.15,0V5Zm3,16.43-.59-.21c-.21,0-1.53-.36-2.12-2.89L16.53,18l.32.11a3.64,3.64,0,0,1,2.4,3Zm-15.43,6c-.64,0-1.42-.38-1.45-2.16v-9a2.94,2.94,0,0,1,.57-2,1.55,1.55,0,0,1,1.19-.49,3.44,3.44,0,0,1,.43,0h0L13.88,17v.32c0,.23.22,2.67-3.45,5.51s-4.74,3.82-4.75,3.82h0A3.66,3.66,0,0,1,3.89,27.37Zm15.47,7.19v0a2,2,0,0,1-2,1.45,4.08,4.08,0,0,1-.94-.13h0L5.83,32.16l0,0a1,1,0,0,1-.4-.81c0-.78.62-1.72,2-2.78,2.84-2.27,4.74-3.65,4.86-3.74a6.94,6.94,0,0,1,4.28-1.28,10,10,0,0,1,2.71.39l.14,0ZM33.29,23.45h0a2.26,2.26,0,0,1-2.21,2,4.28,4.28,0,0,1-1.47-.3l-6.85-2.5-.89-.29v-.18a7.19,7.19,0,0,1,2.38-5L30,12.64h0a2.63,2.63,0,0,1,1.15-.29c1,0,2.11.63,2.15,3.62Z"/><path class="cls-2" d="M52.85,28.64a8.44,8.44,0,0,1-4-.9,6.34,6.34,0,0,1-2.58-2.55,8,8,0,0,1-.89-3.85,8.34,8.34,0,0,1,.51-3,6.26,6.26,0,0,1,3.85-3.78,9.11,9.11,0,0,1,3.14-.52,8.71,8.71,0,0,1,1.92.22,6.34,6.34,0,0,1,1.75.63,1.64,1.64,0,0,1,.78.76,1.55,1.55,0,0,1,.15.94,1.77,1.77,0,0,1-.35.86,1.3,1.3,0,0,1-.72.52,1.34,1.34,0,0,1-1-.13,6.46,6.46,0,0,0-1.2-.44A4.93,4.93,0,0,0,53,17.26a4.13,4.13,0,0,0-2.08.48,3,3,0,0,0-1.25,1.37,5.25,5.25,0,0,0-.42,2.23,5.31,5.31,0,0,0,.42,2.23A3,3,0,0,0,50.91,25a4.24,4.24,0,0,0,2.08.47,5.07,5.07,0,0,0,1.12-.13,5.78,5.78,0,0,0,1.19-.41,1.61,1.61,0,0,1,1.07-.14,1.35,1.35,0,0,1,.76.48,1.69,1.69,0,0,1,.37.83,1.5,1.5,0,0,1-.13.93,1.6,1.6,0,0,1-.73.75,6,6,0,0,1-1.73.66A9.12,9.12,0,0,1,52.85,28.64Z"/><path class="cls-2" d="M65.85,28.64a7.65,7.65,0,0,1-3.77-.91,6.46,6.46,0,0,1-2.52-2.56,8,8,0,0,1-.89-3.83,8.34,8.34,0,0,1,.51-3,6.32,6.32,0,0,1,3.74-3.78,8.08,8.08,0,0,1,2.93-.52,7.61,7.61,0,0,1,3.76.91,6.39,6.39,0,0,1,2.52,2.53,7.91,7.91,0,0,1,.9,3.85,8.41,8.41,0,0,1-.51,3,6.74,6.74,0,0,1-1.46,2.31,6.4,6.4,0,0,1-2.28,1.49A8.08,8.08,0,0,1,65.85,28.64Zm0-3.09a3.21,3.21,0,0,0,1.81-.5A3.28,3.28,0,0,0,68.8,23.6a5.71,5.71,0,0,0,.4-2.26,4.8,4.8,0,0,0-.88-3.09,3,3,0,0,0-2.47-1.11,3.22,3.22,0,0,0-1.8.5,3.09,3.09,0,0,0-1.15,1.42,5.71,5.71,0,0,0-.4,2.28,4.89,4.89,0,0,0,.88,3.1A3,3,0,0,0,65.85,25.55Z"/><path class="cls-2" d="M76.94,28.6a1.74,1.74,0,0,1-1.28-.44,1.76,1.76,0,0,1-.44-1.31V15.92a1.86,1.86,0,0,1,.44-1.35,1.49,1.49,0,0,1,1.16-.48,1.73,1.73,0,0,1,1,.25,3.73,3.73,0,0,1,.8.8L85,23.08h-.56V15.82a1.74,1.74,0,0,1,.43-1.28,2,2,0,0,1,2.54,0,1.74,1.74,0,0,1,.44,1.28V26.93a1.76,1.76,0,0,1-.41,1.22,1.35,1.35,0,0,1-1.08.45,2,2,0,0,1-1.07-.25,3.73,3.73,0,0,1-.83-.79l-6.36-8h.56v7.26a1.84,1.84,0,0,1-.43,1.31A1.74,1.74,0,0,1,76.94,28.6Z"/><path class="cls-2" d="M92.15,28.6a1.74,1.74,0,0,1-1.28-.44,1.76,1.76,0,0,1-.45-1.31V15.92a1.87,1.87,0,0,1,.45-1.35A1.49,1.49,0,0,1,92,14.09a1.7,1.7,0,0,1,1,.25,3.52,3.52,0,0,1,.8.8l6.36,7.94h-.56V15.82a1.74,1.74,0,0,1,.43-1.28,2,2,0,0,1,2.55,0,1.74,1.74,0,0,1,.43,1.28V26.93a1.76,1.76,0,0,1-.4,1.22,1.38,1.38,0,0,1-1.08.45,2.05,2.05,0,0,1-1.08-.25,4,4,0,0,1-.83-.79l-6.36-8h.56v7.26a1.8,1.8,0,0,1-.43,1.31A1.72,1.72,0,0,1,92.15,28.6Z"/><path class="cls-2" d="M107.56,28.42a2,2,0,0,1-1.44-.49,1.91,1.91,0,0,1-.49-1.42V16.18a1.89,1.89,0,0,1,.49-1.41,2,2,0,0,1,1.44-.49h6.8a1.47,1.47,0,0,1,1.08.36,1.4,1.4,0,0,1,.36,1,1.46,1.46,0,0,1-.36,1.07,1.43,1.43,0,0,1-1.08.37h-5.2v2.69h4.75a1.5,1.5,0,0,1,1.08.36,1.72,1.72,0,0,1,0,2.13,1.5,1.5,0,0,1-1.08.36h-4.75v2.91h5.2a1.43,1.43,0,0,1,1.08.37,1.43,1.43,0,0,1-1.08,2.48Z"/><path class="cls-2" d="M125.13,28.64a8.42,8.42,0,0,1-4-.9,6.22,6.22,0,0,1-2.58-2.55,7.9,7.9,0,0,1-.89-3.85,8.34,8.34,0,0,1,.51-3A6.33,6.33,0,0,1,119.62,16,6.51,6.51,0,0,1,122,14.57a9.07,9.07,0,0,1,3.14-.52,8.62,8.62,0,0,1,1.91.22,6.3,6.3,0,0,1,1.76.63,1.74,1.74,0,0,1,.78.76,1.55,1.55,0,0,1,.15.94,1.87,1.87,0,0,1-.35.86,1.38,1.38,0,0,1-.72.52,1.33,1.33,0,0,1-1-.13,6.73,6.73,0,0,0-1.2-.44,4.93,4.93,0,0,0-1.23-.15,4.13,4.13,0,0,0-2.08.48,3,3,0,0,0-1.25,1.37,5.25,5.25,0,0,0-.42,2.23,5.31,5.31,0,0,0,.42,2.23A3,3,0,0,0,123.19,25a4.24,4.24,0,0,0,2.08.47,5.07,5.07,0,0,0,1.12-.13,6,6,0,0,0,1.19-.41,1.61,1.61,0,0,1,1.07-.14,1.39,1.39,0,0,1,.76.48,1.79,1.79,0,0,1,.37.83,1.5,1.5,0,0,1-.13.93,1.6,1.6,0,0,1-.73.75,6.08,6.08,0,0,1-1.74.66A9,9,0,0,1,125.13,28.64Z"/><path class="cls-3" d="M136.76,28.6a1.84,1.84,0,0,1-1.36-.49,1.9,1.9,0,0,1-.48-1.38V17.28h-3.15a1.56,1.56,0,0,1-1.14-.39,1.5,1.5,0,0,1-.39-1.11,1.5,1.5,0,0,1,.39-1.12,1.56,1.56,0,0,1,1.14-.38h10a1.53,1.53,0,0,1,1.13.38,1.5,1.5,0,0,1,.39,1.12,1.5,1.5,0,0,1-.39,1.11,1.54,1.54,0,0,1-1.13.39h-3.15v9.45a2,2,0,0,1-.46,1.38A1.85,1.85,0,0,1,136.76,28.6Z"/><path class="cls-2" d="M150.91,28.6a1.83,1.83,0,0,1-1-.29,1.25,1.25,0,0,1-.52-.8,1.91,1.91,0,0,1,.18-1.16l5-10.75a2.65,2.65,0,0,1,.89-1.14,2.11,2.11,0,0,1,1.21-.37,2,2,0,0,1,1.2.37,3,3,0,0,1,.89,1.14l5,10.75a1.86,1.86,0,0,1,.23,1.17,1.16,1.16,0,0,1-.5.8,1.79,1.79,0,0,1-1,.28,1.86,1.86,0,0,1-1.23-.36,3,3,0,0,1-.78-1.17l-1.08-2.54,1.41,1h-8.27l1.42-1-1.08,2.54a3.75,3.75,0,0,1-.74,1.17A1.65,1.65,0,0,1,150.91,28.6Zm5.67-10.47-2.32,5.55-.57-1h5.84l-.56,1-2.35-5.55Z"/><path class="cls-2" d="M167.48,28.42a2,2,0,0,1-1.44-.49,1.91,1.91,0,0,1-.49-1.42V16.18a1.89,1.89,0,0,1,.49-1.41,2,2,0,0,1,1.44-.49h6.8a1.47,1.47,0,0,1,1.08.36,1.4,1.4,0,0,1,.36,1,1.46,1.46,0,0,1-.36,1.07,1.43,1.43,0,0,1-1.08.37h-5.2v2.69h4.75a1.5,1.5,0,0,1,1.08.36,1.72,1.72,0,0,1,0,2.13,1.5,1.5,0,0,1-1.08.36h-4.75v2.91h5.2a1.43,1.43,0,0,1,1.08.37,1.43,1.43,0,0,1-1.08,2.48Z"/></g></g></svg>